<svg width="24" height="25" viewBox="0 0 24 25" fill="none" xmlns="http://www.w3.org/2000/svg">
<g id="CaretDown">
<path id="Vector" d="M20.0306 10.0306L12.5306 17.5306C12.461 17.6004 12.3783 17.6557 12.2872 17.6934C12.1962 17.7312 12.0986 17.7506 12 17.7506C11.9014 17.7506 11.8038 17.7312 11.7128 17.6934C11.6217 17.6557 11.539 17.6004 11.4694 17.5306L3.96938 10.0306C3.82865 9.8899 3.74958 9.69903 3.74958 9.50001C3.74958 9.30098 3.82865 9.11011 3.96938 8.96938C4.11011 8.82865 4.30098 8.74959 4.5 8.74959C4.69902 8.74959 4.8899 8.82865 5.03063 8.96938L12 15.9397L18.9694 8.96938C19.0391 8.8997 19.1218 8.84442 19.2128 8.80671C19.3039 8.769 19.4015 8.74959 19.5 8.74959C19.5985 8.74959 19.6961 8.769 19.7872 8.80671C19.8782 8.84442 19.9609 8.8997 20.0306 8.96938C20.1003 9.03906 20.1556 9.12179 20.1933 9.21283C20.231 9.30388 20.2504 9.40146 20.2504 9.50001C20.2504 9.59855 20.231 9.69613 20.1933 9.78718C20.1556 9.87822 20.1003 9.96095 20.0306 10.0306Z" fill="#100F0F"/>
</g>
</svg>
